<?xml version="1.0" encoding="iso-8859-1"?>
<!-- Uploaded to: SVG Repo, www.svgrepo.com, Generator: SVG Repo Mixer Tools -->
<svg version="1.1" id="Layer_1" xmlns="http://www.w3.org/2000/svg" xmlns:xlink="http://www.w3.org/1999/xlink" 
	 viewBox="0 0 540.928 540.928" xml:space="preserve">
<path d="M504.392,526.464H65.464c-20.096,0-36.536-16.44-36.536-36.536V51c0-20.096,16.44-36.536,36.536-36.536h438.928
	c20.096,0,36.536,16.44,36.536,36.536v438.928C540.928,510.024,524.488,526.464,504.392,526.464z"/>
<circle style="fill:#303030;" cx="278.608" cy="270.464" r="184"/>
<circle cx="284.928" cy="270.464" r="206.336"/>
<path style="fill:#999999;" d="M284.928,457.712c-103.24,0-187.24-84-187.24-187.248c0-103.24,84-187.24,187.24-187.24
	s187.24,84,187.24,187.24C472.168,373.712,388.168,457.712,284.928,457.712z M284.928,89.624c-99.712,0-180.84,81.128-180.84,180.84
	c0,99.728,81.128,180.848,180.84,180.848s180.84-81.128,180.84-180.848S384.64,89.624,284.928,89.624z"/>
<circle style="fill:#D80E47;" cx="284.928" cy="270.464" r="68.4"/>
<g>
	<circle style="fill:#666666;" cx="69.328" cy="51.016" r="9.136"/>
	<circle style="fill:#666666;" cx="94.584" cy="51.016" r="9.136"/>
	<circle style="fill:#666666;" cx="119.832" cy="51.016" r="9.136"/>
</g>
<circle style="fill:#D80E47;" cx="69.456" cy="456.544" r="9.136"/>
<circle style="fill:#CCCCCC;" cx="103.84" cy="456.544" r="9.136"/>
<rect x="60.328" y="477.472" style="fill:#666666;" width="73.064" height="8.952"/>
<g>
	<polygon style="fill:#CCCCCC;" points="380.176,381.648 364.104,371.168 453.376,234.248 453.376,67.88 472.576,67.88 
		472.576,239.952 	"/>
	<polygon style="fill:#CCCCCC;" points="426.008,311.416 369.072,398.64 350.344,361.008 384.016,309.424 	"/>
</g>
<g style="opacity:0.4;">
	<polygon style="fill:#FFFFFF;" points="363.344,387.136 369.072,398.64 472.576,239.952 472.576,67.88 462.976,67.88 
		462.976,234.248 	"/>
</g>
<circle style="fill:#CCCCCC;" cx="463.008" cy="79.104" r="37.208"/>
<circle cx="463.008" cy="79.104" r="20.408"/>
<g style="opacity:0.2;">
	<g>
		<g>
			<polygon style="fill:#FFFFFF;" points="0,514.488 0,67.104 531.552,67.104 			"/>
		</g>
	</g>
</g>
</svg>