<?xml version="1.0" encoding="iso-8859-1"?>
<!-- Uploaded to: SVG Repo, www.svgrepo.com, Generator: SVG Repo Mixer Tools -->
<svg version="1.1" id="Layer_1" xmlns="http://www.w3.org/2000/svg" xmlns:xlink="http://www.w3.org/1999/xlink" 
	 viewBox="0 0 508 508" xml:space="preserve">
<path style="fill:#AEB1B4;" d="M490,60h-2H18c-7.6,0-16,4.4-16,12v360c0,7.6,8.4,16,16,16h472c7.6,0,12-8.4,12-16V74v-2
	C502,64.4,497.6,60,490,60z"/>
<path style="fill:#354E5C;" d="M200,100c-82.8,0-150,67.2-150,150s67.2,150,150,150s150-67.2,150-150S282.8,100,200,100z M200,304
	c-29.6,0-54-24.4-54-54s24.4-54,54-54s54,24.4,54,54S229.6,304,200,304z"/>
<path style="fill:#7D8B95;" d="M200,200c-27.6,0-50,22.4-50,50s22.4,50,50,50s50-22.4,50-50S227.6,200,200,200z M200,260
	c-5.6,0-10-4.4-10-10s4.4-10,10-10s10,4.4,10,10S205.6,260,200,260z"/>
<circle style="fill:#354E5C;" cx="200" cy="250" r="6"/>
<g>
	<rect x="422" y="112" style="fill:#E8E3E3;" width="12" height="28"/>
	<polygon style="fill:#E8E3E3;" points="438,372 434,312 422,312 418,372 	"/>
</g>
<circle style="fill:#E36D60;" cx="44" cy="406" r="10"/>
<g>
	<circle style="fill:#61C2AB;" cx="468" cy="406" r="10"/>
	<circle style="fill:#61C2AB;" cx="428" cy="406" r="10"/>
	<circle style="fill:#61C2AB;" cx="388" cy="406" r="10"/>
</g>
<path d="M488,454H16c-10.4,0-15.6-6.8-16-20V74c0-18,11.2-20,16-20h472c11.2,0,20,8.8,20,20v360C508,445.2,499.2,454,488,454z
	 M16,62c-2.4,0-8,0-8,12v360c0.4,11.2,4,12,8,12h472c6.8,0,12-5.2,12-12V74c0-6.8-5.2-12-12-12H16z"/>
<path d="M200,406c-86,0-156-70-156-156S114,94,200,94s156,70,156,156S286,406,200,406z M200,102c-81.6,0-148,66.4-148,148
	s66.4,148,148,148s148-66.4,148-148S281.6,102,200,102z"/>
<path d="M200,306c-30.8,0-56-25.2-56-56s25.2-56,56-56s56,25.2,56,56S230.8,306,200,306z M200,202c-26.4,0-48,21.6-48,48
	s21.6,48,48,48s48-21.6,48-48S226.4,202,200,202z"/>
<path d="M128,254c-2.4,0-4-1.6-4-4c0-42,34-76,76-76c2.4,0,4,1.6,4,4s-1.6,4-4,4c-37.6,0-68,30.4-68,68C132,252.4,130.4,254,128,254
	z"/>
<path d="M200,326c-2.4,0-4-1.6-4-4s1.6-4,4-4c37.6,0,68-30.4,68-68c0-2.4,1.6-4,4-4s4,1.6,4,4C276,292,242,326,200,326z"/>
<path d="M108,254c-2.4,0-4-1.6-4-4c0-52.8,43.2-96,96-96c2.4,0,4,1.6,4,4s-1.6,4-4,4c-48.4,0-88,39.6-88,88
	C112,252.4,110.4,254,108,254z"/>
<path d="M200,346c-2.4,0-4-1.6-4-4s1.6-4,4-4c48.4,0,88-39.6,88-88c0-2.4,1.6-4,4-4s4,1.6,4,4C296,302.8,252.8,346,200,346z"/>
<path d="M88,254c-2.4,0-4-1.6-4-4c0-64,52-116,116-116c2.4,0,4,1.6,4,4s-1.6,4-4,4c-59.6,0-108,48.4-108,108
	C92,252.4,90.4,254,88,254z"/>
<path d="M200,366c-2.4,0-4-1.6-4-4s1.6-4,4-4c59.6,0,108-48.4,108-108c0-2.4,1.6-4,4-4s4,1.6,4,4C316,314,264,366,200,366z"/>
<path d="M68,254c-2.4,0-4-1.6-4-4c0-74.8,61.2-136,136-136c2.4,0,4,1.6,4,4s-1.6,4-4,4c-70.4,0-128,57.6-128,128
	C72,252.4,70.4,254,68,254z"/>
<path d="M200,386c-2.4,0-4-1.6-4-4s1.6-4,4-4c70.4,0,128-57.6,128-128c0-2.4,1.6-4,4-4s4,1.6,4,4C336,324.8,274.8,386,200,386z"/>
<path d="M200,266c-8.8,0-16-7.2-16-16s7.2-16,16-16s16,7.2,16,16S208.8,266,200,266z M200,242c-4.4,0-8,3.6-8,8s3.6,8,8,8s8-3.6,8-8
	S204.4,242,200,242z"/>
<path d="M428,312c-2.4,0-4-1.6-4-4V144c0-2.4,1.6-4,4-4s4,1.6,4,4v164C432,310.4,430.4,312,428,312z"/>
<path d="M440,146h-24c-2.4,0-4-1.6-4-4v-32c0-2.4,1.6-4,4-4h24c2.4,0,4,1.6,4,4v32C444,144.4,442.4,146,440,146z M420,138h16v-24
	h-16V138z"/>
<path d="M440,378h-24c-1.2,0-2-0.4-2.8-1.2c-0.8-0.8-1.2-2-1.2-2.8l4-64c0-2,2-3.6,4-3.6h16c2,0,4,1.6,4,3.6l4,64
	c0,1.2-0.4,2-1.2,2.8C442,377.6,441.2,378,440,378z M420.4,370H436l-3.6-56H424L420.4,370z"/>
<path d="M44,422c-8.8,0-16-7.2-16-16s7.2-16,16-16s16,7.2,16,16S52.8,422,44,422z M44,398c-4.4,0-8,3.6-8,8s3.6,8,8,8s8-3.6,8-8
	S48.4,398,44,398z"/>
<path d="M468,422c-8.8,0-16-7.2-16-16s7.2-16,16-16s16,7.2,16,16S476.8,422,468,422z M468,398c-4.4,0-8,3.6-8,8s3.6,8,8,8s8-3.6,8-8
	S472.4,398,468,398z"/>
<path d="M428,422c-8.8,0-16-7.2-16-16s7.2-16,16-16s16,7.2,16,16S436.8,422,428,422z M428,398c-4.4,0-8,3.6-8,8s3.6,8,8,8s8-3.6,8-8
	S432.4,398,428,398z"/>
<path d="M388,422c-8.8,0-16-7.2-16-16s7.2-16,16-16s16,7.2,16,16S396.8,422,388,422z M388,398c-4.4,0-8,3.6-8,8s3.6,8,8,8s8-3.6,8-8
	S392.4,398,388,398z"/>
</svg>