<?xml version="1.0" ?><svg id="Icons" style="enable-background:new 0 0 32 32;" version="1.1" viewBox="0 0 32 32" xml:space="preserve" xmlns="http://www.w3.org/2000/svg" xmlns:xlink="http://www.w3.org/1999/xlink"><path d="M27.6,12C26.3,6.1,21.1,2,15,2C7.8,2,2,7.8,2,15s5.8,13,13,13c0.1,0,0.3,0,0.4-0.1c0.4,0.5,0.8,1.1,1.3,1.6  c0.2,0.2,0.5,0.3,0.8,0.3c0.2,0,0.5-0.1,0.7-0.2c0.4-0.4,0.5-1,0.1-1.4c-2.2-2.5-3.9-5.4-5.1-8.5c-0.1-0.2,0-0.4,0.2-0.5  c0.1-0.1,0.3-0.1,0.4-0.1c0.1,0,0.2,0.1,0.3,0.2l2.2,3.9c0.2,0.4,0.7,0.6,1.1,0.5c0.4-0.1,0.7-0.5,0.7-1V13c0-0.3,0.2-0.5,0.5-0.5  S19,12.7,19,13v6.4c0,0.6,0.4,1,1,1s1-0.4,1-1V13v-1.5c0-0.3,0.2-0.5,0.5-0.5s0.5,0.2,0.5,0.5V13v6.4c0,0.6,0.4,1,1,1s1-0.4,1-1V13  c0-0.3,0.2-0.5,0.5-0.5c0.3,0,0.5,0.2,0.5,0.5v1.5v5c0,0.6,0.4,1,1,1s1-0.4,1-1v-5c0-0.3,0.2-0.5,0.5-0.5s0.5,0.2,0.5,0.5v6  c0,2.8-0.6,5.6-1.7,8.2c-0.2,0.5,0,1.1,0.5,1.3C27,30,27.1,30,27.2,30c0.4,0,0.8-0.2,0.9-0.6c1.2-2.9,1.9-5.9,1.9-9v-6  C30,13.1,29,12.1,27.6,12z M16,13v5.9l-0.4-0.6c-0.3-0.6-0.9-1-1.6-1.2c-0.1,0-0.1,0-0.2,0c-0.8-0.4-1.2-1.2-1.2-2.1  c0-1.3,1.1-2.4,2.4-2.4c0.3,0,0.7,0.1,1,0.2C16,12.8,16,12.9,16,13z M15,8c-3.9,0-7,3.1-7,7c0,0.6-0.4,1-1,1s-1-0.4-1-1c0-5,4-9,9-9  c0.6,0,1,0.4,1,1S15.6,8,15,8z"/></svg>