<?xml version="1.0" standalone="no"?>
<!DOCTYPE svg PUBLIC "-//W3C//DTD SVG 20010904//EN"
 "http://www.w3.org/TR/2001/REC-SVG-20010904/DTD/svg10.dtd">
<svg version="1.0" xmlns="http://www.w3.org/2000/svg"
 width="512.000000pt" height="512.000000pt" viewBox="0 0 512.000000 512.000000"
 preserveAspectRatio="xMidYMid meet">

<g transform="translate(0.000000,512.000000) scale(0.100000,-0.100000)"
fill="#ffffff" stroke="none">
<path d="M1889 5104 c-10 -12 -15 -50 -17 -129 l-4 -112 -76 -17 c-417 -96
-820 -349 -1131 -711 -324 -376 -514 -799 -586 -1298 -20 -140 -20 -422 0
-569 97 -711 499 -1355 1087 -1739 334 -218 827 -361 974 -282 143 76 178 258
73 377 -50 57 -88 73 -217 96 -343 60 -642 224 -895 490 -301 316 -478 691
-537 1137 -16 116 -8 396 14 518 89 491 361 939 748 1228 140 105 326 202 464
242 29 8 60 18 69 21 13 5 15 -8 15 -98 0 -113 13 -148 53 -148 12 0 83 42
157 94 74 51 200 137 279 192 79 54 154 112 165 127 27 37 29 140 4 179 -19
29 -571 409 -604 415 -11 3 -26 -3 -35 -13z"/>
<path d="M2982 4854 c-143 -71 -175 -254 -68 -381 38 -46 96 -69 227 -92 325
-58 601 -206 856 -460 250 -249 443 -595 524 -941 76 -324 63 -674 -37 -990
-137 -435 -418 -811 -784 -1048 -131 -85 -322 -169 -447 -197 l-33 -7 0 111
c0 132 -8 161 -48 161 -15 0 -38 -8 -51 -17 -13 -10 -138 -97 -279 -193 -141
-96 -264 -187 -275 -201 -29 -40 -33 -107 -10 -160 18 -41 41 -59 284 -223
145 -99 275 -188 288 -198 62 -48 91 -9 91 122 l0 97 68 12 c178 33 462 149
644 264 599 378 1015 1034 1113 1755 33 244 13 573 -50 833 -210 870 -916
1593 -1711 1754 -162 33 -234 33 -302 -1z"/>
<path d="M2835 3899 c-197 -19 -477 -124 -674 -254 l-41 -28 0 -694 0 -694
-67 6 c-179 17 -391 -82 -533 -250 -89 -105 -159 -280 -160 -397 0 -20 5 -61
11 -90 74 -346 516 -394 819 -89 87 89 141 175 175 284 l25 78 0 838 0 838 28
12 c127 59 321 17 643 -138 200 -96 312 -136 433 -157 198 -35 344 17 420 149
24 42 56 147 56 185 0 18 -3 17 -31 -10 -28 -28 -34 -30 -83 -25 -90 9 -197
73 -395 233 -62 51 -146 109 -186 129 -129 63 -278 88 -440 74z"/>
</g>
</svg>
