<?xml version="1.0" standalone="no"?>
<!DOCTYPE svg PUBLIC "-//W3C//DTD SVG 20010904//EN"
 "http://www.w3.org/TR/2001/REC-SVG-20010904/DTD/svg10.dtd">
<svg version="1.0" xmlns="http://www.w3.org/2000/svg"
 width="512.000000pt" height="512.000000pt" viewBox="0 0 512.000000 512.000000"
 preserveAspectRatio="xMidYMid meet">

<g transform="translate(0.000000,512.000000) scale(0.100000,-0.100000)"
fill="#ffffff" stroke="none">
<path d="M2266 4842 c-11 -2 -378 -105 -815 -228 -698 -196 -799 -226 -818
-249 -23 -26 -23 -27 -23 -396 l0 -369 -266 0 c-230 0 -270 -2 -294 -17 -47
-27 -61 -77 -38 -128 23 -52 44 -55 333 -55 l265 0 0 -189 0 -190 -44 20 c-96
42 -232 41 -329 -4 -308 -141 -314 -574 -9 -724 73 -36 80 -38 177 -38 93 0
105 2 167 33 111 55 203 168 223 275 l7 37 1859 0 1859 0 0 -290 0 -290 -784
0 -784 0 -42 55 c-119 154 -317 283 -514 334 -110 29 -141 28 -177 -8 l-29
-29 0 -176 0 -176 -1066 -2 -1066 -3 -30 -34 c-26 -29 -30 -39 -25 -75 4 -27
15 -49 32 -63 l26 -23 1065 0 1064 0 0 -290 0 -290 -1045 0 c-1135 0 -1094 2
-1130 -54 -24 -36 -14 -94 20 -123 l26 -23 846 0 846 0 -52 -55 c-129 -136
-155 -329 -66 -482 14 -23 25 -44 25 -47 0 -3 -360 -6 -799 -6 l-800 0 -26
-23 c-56 -48 -40 -133 30 -163 51 -21 4939 -21 4990 0 70 30 86 115 30 163
l-26 23 -1375 0 c-757 0 -1374 3 -1372 8 2 4 15 32 30 62 40 79 48 140 48 341
l0 179 219 0 219 0 12 -31 c17 -39 50 -61 95 -61 39 0 69 21 91 64 l15 28
1009 0 1009 0 26 23 c34 29 44 87 20 123 -32 49 -62 54 -346 54 l-263 0 49 35
c63 44 119 116 147 185 18 45 22 81 26 208 l4 152 169 0 c160 0 169 1 194 23
17 14 28 36 32 63 5 36 1 46 -25 75 l-30 34 -171 3 -171 3 0 290 0 289 168 0
c143 0 170 3 188 18 51 41 57 97 15 144 l-29 33 -171 3 -171 3 0 290 0 289
160 0 c176 0 206 7 228 55 15 33 15 57 0 90 -26 58 48 55 -1393 55 l-1325 0 0
583 c0 563 -1 583 -20 615 -11 17 -21 32 -22 32 -2 0 -17 4 -33 8 -17 5 -39 6
-49 4z m-76 -395 l0 -164 -682 -191 c-376 -106 -686 -192 -690 -192 -5 0 -8
73 -8 163 l0 164 422 118 c233 65 538 151 678 191 140 40 261 73 268 73 9 1
12 -38 12 -162z m0 -612 l0 -235 -690 0 -690 0 0 44 0 43 273 77 c149 42 452
128 672 190 220 63 408 114 418 115 16 1 17 -16 17 -234z m-514 -457 c-107
-150 -124 -295 -50 -443 14 -27 39 -65 57 -82 l31 -33 -452 0 -452 0 0 290 0
290 441 0 441 0 -16 -22z m2844 -268 l0 -290 -1131 0 -1131 0 31 35 c79 90
101 176 101 390 l0 155 1065 0 1065 0 0 -290z m-2455 191 c131 -59 162 -224
61 -326 -82 -81 -197 -82 -281 -1 -62 60 -81 139 -49 214 45 108 167 160 269
113z m-1551 -460 c39 -25 80 -87 91 -138 11 -54 -19 -135 -64 -176 -128 -115
-319 -44 -338 127 -19 165 167 276 311 187z m1996 -672 c145 -75 265 -199 339
-352 53 -107 71 -179 78 -307 l5 -105 -53 80 c-100 151 -267 293 -425 362
l-64 27 0 174 0 173 23 -6 c12 -4 56 -25 97 -46z m1460 -334 c0 -3 -9 -23 -19
-44 -51 -100 -49 -235 5 -345 25 -52 109 -142 159 -173 16 -9 -92 -12 -493
-12 l-513 -1 8 48 c4 26 7 110 7 187 -1 111 -6 157 -24 220 -12 44 -24 90 -27
103 l-5 22 451 0 c248 0 451 -2 451 -5z m403 -16 c43 -12 101 -59 122 -99 41
-79 26 -172 -39 -236 -86 -87 -213 -82 -294 10 -76 87 -63 220 30 289 60 44
113 55 181 36z m-1934 -189 c59 -30 161 -114 214 -178 43 -51 117 -168 117
-185 0 -4 -85 -7 -190 -7 l-190 0 0 195 c0 107 2 195 5 195 3 0 23 -9 44 -20z
m-357 -731 c77 -39 122 -142 99 -227 -25 -91 -124 -160 -215 -150 -154 18
-235 189 -149 312 62 88 167 114 265 65z"/>
</g>
</svg>
