<?xml version="1.0" ?>
<!DOCTYPE svg  PUBLIC '-//W3C//DTD SVG 1.1//EN'  'http://www.w3.org/Graphics/SVG/1.1/DTD/svg11.dtd'>
<!-- Uploaded to: SVG Repo, www.svgrepo.com, Generator: SVG Repo Mixer Tools -->
<svg fill="#ffffff" width="1000px" height="1000px" viewBox="0 0 48 48" style="fill-rule:evenodd;clip-rule:evenodd;stroke-linejoin:round;stroke-miterlimit:1.41421;" version="1.1" xml:space="preserve" xmlns="http://www.w3.org/2000/svg" xmlns:serif="http://www.serif.com/" xmlns:xlink="http://www.w3.org/1999/xlink">
<g id="play_with_trackbar">
<g id="window">
<path d="M3.745,35.69L3.745,12.761C3.745,11.091 5.101,9.735 6.771,9.735L41.42,9.735C43.088,9.735 44.448,11.088 44.448,12.761L44.448,35.69C44.448,37.36 43.091,38.716 41.42,38.716L6.771,38.716C5.101,38.716 3.745,37.36 3.745,35.69ZM42.534,35.69L42.534,12.761C42.534,12.151 42.036,11.65 41.42,11.65L6.771,11.65C6.158,11.65 5.661,12.149 5.661,12.761L5.661,35.69C5.661,36.303 6.158,36.8 6.771,36.8L41.42,36.8C42.034,36.8 42.534,36.303 42.534,35.69Z" id="window1"/>
<path d="M7.107,13.574C7.107,13.068 7.52,12.654 8.026,12.654C8.533,12.654 8.944,13.068 8.944,13.574C8.944,14.078 8.533,14.491 8.026,14.491C7.52,14.491 7.107,14.078 7.107,13.574ZM9.707,13.574C9.707,13.068 10.119,12.654 10.625,12.654C11.131,12.654 11.544,13.068 11.544,13.574C11.544,14.078 11.131,14.491 10.625,14.491C10.119,14.491 9.707,14.078 9.707,13.574ZM12.306,13.574C12.306,13.068 12.718,12.654 13.223,12.654C13.729,12.654 14.142,13.068 14.142,13.574C14.142,14.078 13.729,14.491 13.223,14.491C12.718,14.491 12.306,14.078 12.306,13.574Z" id="window-actions"/>
</g>
<g id="trackbar">
<path d="M7.895,33.674C7.895,33.383 8.133,33.143 8.426,33.143L39.767,33.143C40.058,33.143 40.299,33.383 40.299,33.674C40.299,33.969 40.058,34.207 39.767,34.207L8.426,34.207C8.133,34.207 7.895,33.969 7.895,33.674Z" id="line"/>
<path d="M12.778,31.39C13.964,31.39 14.931,32.357 14.931,33.543C14.931,34.729 13.964,35.696 12.778,35.696C11.592,35.696 10.625,34.729 10.625,33.543C10.625,32.357 11.592,31.39 12.778,31.39Z" id="position"/>
</g>
<path d="M28.711,24.381L21.683,28.442C21.101,28.778 20.627,28.505 20.627,27.833L20.626,19.713C20.626,19.041 21.1,18.768 21.681,19.104L28.711,23.163C29.293,23.499 29.293,24.045 28.711,24.381Z" id="play"/>
</g>
</svg>