<svg xmlns="http://www.w3.org/2000/svg" version="1.0" preserveAspectRatio="xMidYMid meet" viewBox="0 102 511.87 308">

<g transform="translate(0.000000,512.000000) scale(0.100000,-0.100000)" fill="#ffffff" stroke="none">
<path d="M0 3752 l0 -347 1193 -1193 1192 -1192 343 0 342 0 0 1540 0 1540 -1535 0 -1535 0 0 -348z"/>
<path d="M3572 3884 c-52 -8 -117 -22 -145 -32 l-52 -17 -3 -357 c-1 -241 1 -358 8 -358 6 0 27 10 48 23 261 162 611 118 832 -103 267 -267 267 -693 0 -960 -213 -213 -529 -260 -798 -120 -43 22 -81 40 -85 40 -4 0 -7 -160 -7 -356 l0 -355 33 -14 c77 -32 210 -50 377 -50 176 1 258 13 414 62 327 102 622 356 780 669 174 347 192 739 49 1099 -72 181 -161 314 -308 460 -183 184 -409 303 -680 360 -113 24 -346 28 -463 9z"/>
<path d="M0 2575 l0 -410 573 -573 572 -572 403 0 c221 0 402 3 402 8 0 4 -439 446 -975 982 l-975 975 0 -410z"/>
<path d="M3675 2927 c-113 -38 -191 -105 -239 -207 -28 -59 -31 -74 -31 -160 0 -86 3 -101 31 -160 39 -82 101 -144 184 -184 59 -28 74 -31 160 -31 86 0 101 3 160 31 82 39 144 101 184 184 28 59 31 74 31 160 0 86 -3 101 -31 160 -64 133 -183 211 -329 217 -48 2 -96 -2 -120 -10z"/>
<path d="M0 1375 l0 -355 357 0 358 0 -355 355 c-195 195 -356 355 -357 355 -2 0 -3 -160 -3 -355z"/>
</g>
</svg>