<?xml version="1.0" standalone="no"?>
<!DOCTYPE svg PUBLIC "-//W3C//DTD SVG 20010904//EN"
 "http://www.w3.org/TR/2001/REC-SVG-20010904/DTD/svg10.dtd">
<svg version="1.0" xmlns="http://www.w3.org/2000/svg"
 width="512.000000pt" height="512.000000pt" viewBox="0 0 512.000000 512.000000"
 preserveAspectRatio="xMidYMid meet">

<g transform="translate(0.000000,512.000000) scale(0.100000,-0.100000)"
fill="#ffffff" stroke="none">
<path d="M2590 5005 c-625 -95 -1116 -559 -1239 -1170 -126 -624 183 -1266
752 -1566 365 -192 781 -227 1168 -99 515 170 877 577 991 1114 31 146 30 399
-1 546 -44 210 -112 371 -232 550 -75 113 -239 280 -356 363 -163 116 -375
206 -583 248 -128 27 -373 33 -500 14z m425 -404 c208 -43 380 -132 530 -273
195 -184 314 -426 333 -678 29 -375 -126 -722 -423 -943 -444 -330 -1060 -277
-1441 125 -258 272 -352 657 -248 1014 95 330 345 596 669 713 169 61 406 78
580 42z"/>
<path d="M662 2145 l-662 -594 287 -313 c158 -172 292 -313 299 -313 14 0
1326 1175 1322 1185 -4 12 -572 630 -578 630 -3 0 -303 -268 -668 -595z"/>
<path d="M3810 1735 l0 -345 -350 0 -350 0 0 -300 0 -300 350 0 350 0 0 -345
0 -345 305 0 305 0 0 345 0 345 350 0 350 0 0 300 0 300 -350 0 -350 0 0 345
0 345 -305 0 -305 0 0 -345z"/>
</g>
</svg>
