<?xml version="1.0" standalone="no"?>
<!DOCTYPE svg PUBLIC "-//W3C//DTD SVG 20010904//EN"
 "http://www.w3.org/TR/2001/REC-SVG-20010904/DTD/svg10.dtd">
<svg version="1.0" xmlns="http://www.w3.org/2000/svg"
 width="512.000000pt" height="512.000000pt" viewBox="0 0 512.000000 512.000000"
 preserveAspectRatio="xMidYMid meet">

<g transform="translate(0.000000,512.000000) scale(0.100000,-0.100000)"
fill="#ffffff" stroke="none">
<path d="M3040 4953 c-102 -10 -248 -39 -346 -69 -643 -194 -1108 -720 -1230
-1389 -23 -124 -26 -440 -5 -555 34 -196 97 -390 176 -540 l34 -65 -713 -715
c-653 -654 -716 -721 -744 -780 -143 -302 44 -638 376 -675 76 -9 173 9 252
47 59 28 126 91 780 743 l715 713 100 -49 c411 -199 878 -230 1320 -88 124 40
351 155 465 236 123 87 327 292 412 413 320 454 409 1012 247 1545 -42 136
-141 340 -230 472 -101 148 -305 353 -452 452 -309 208 -656 314 -1012 309
-60 -1 -126 -3 -145 -5z m428 -338 c286 -56 539 -191 747 -400 210 -209 343
-459 402 -752 24 -121 24 -393 0 -518 -116 -597 -569 -1050 -1162 -1161 -134
-25 -393 -26 -518 -1 -291 58 -544 193 -752 402 -210 209 -343 459 -402 752
-24 122 -24 404 0 526 97 486 421 883 871 1068 103 42 253 83 361 98 98 14
354 6 453 -14z m-2068 -3428 c-370 -372 -681 -677 -702 -688 -48 -24 -81 -24
-134 2 -67 32 -100 115 -73 186 5 15 310 329 685 704 l675 675 107 -105 108
-106 -666 -668z"/>
<path d="M3135 3826 c-37 -17 -70 -52 -84 -89 -6 -16 -11 -103 -11 -202 l0
-174 -189 -3 c-207 -3 -216 -6 -265 -72 -29 -39 -29 -133 0 -172 49 -66 58
-69 264 -72 l189 -3 3 -189 c3 -206 6 -215 72 -264 39 -29 133 -29 172 0 66
49 69 58 72 264 l3 189 189 3 c206 3 215 6 264 72 29 39 29 133 0 172 -49 66
-58 69 -264 72 l-189 3 -3 189 c-3 206 -6 215 -70 263 -34 25 -113 32 -153 13z"/>
</g>
</svg>
