<?xml version="1.0" standalone="no"?>
<!DOCTYPE svg PUBLIC "-//W3C//DTD SVG 20010904//EN"
 "http://www.w3.org/TR/2001/REC-SVG-20010904/DTD/svg10.dtd">
<svg version="1.0" xmlns="http://www.w3.org/2000/svg"
 width="512.000000pt" height="512.000000pt" viewBox="0 0 512.000000 512.000000"
 preserveAspectRatio="xMidYMid meet">

<g transform="translate(0.000000,512.000000) scale(0.100000,-0.100000)"
fill="#ffffff" stroke="none">
<path d="M3040 4953 c-729 -72 -1331 -572 -1533 -1273 -47 -163 -61 -271 -61
-475 -1 -301 53 -534 182 -791 l40 -81 -695 -694 c-382 -382 -710 -716 -727
-744 -43 -67 -64 -123 -75 -200 -25 -174 54 -357 194 -449 145 -97 317 -109
475 -34 59 28 126 91 780 743 l715 713 100 -49 c411 -199 878 -230 1320 -88
124 40 351 155 465 236 123 87 327 292 412 413 320 454 409 1012 247 1545 -42
136 -141 340 -230 472 -101 148 -305 353 -452 452 -309 208 -656 314 -1012
309 -60 -1 -126 -3 -145 -5z m428 -338 c286 -56 539 -191 747 -400 210 -209
343 -459 402 -752 24 -121 24 -393 0 -518 -116 -597 -569 -1050 -1162 -1161
-134 -25 -393 -26 -518 -1 -291 58 -544 193 -752 402 -210 209 -343 459 -402
752 -24 122 -24 404 0 526 97 486 421 883 871 1068 103 42 253 83 361 98 98
14 354 6 453 -14z m-2068 -3429 c-662 -665 -706 -705 -769 -706 -48 0 -108 38
-130 84 -25 51 -26 86 -5 129 9 18 317 334 685 703 l670 670 107 -105 108
-106 -666 -669z"/>
<path d="M2655 3346 c-67 -29 -105 -106 -91 -181 9 -47 59 -102 104 -115 25
-8 209 -10 554 -8 504 3 517 4 544 24 53 39 69 71 69 134 0 63 -16 95 -69 134
-27 21 -40 21 -554 23 -423 2 -533 0 -557 -11z"/>
</g>
</svg>
