<?xml version="1.0" standalone="no"?>
<!DOCTYPE svg PUBLIC "-//W3C//DTD SVG 20010904//EN"
 "http://www.w3.org/TR/2001/REC-SVG-20010904/DTD/svg10.dtd">
<svg version="1.0" xmlns="http://www.w3.org/2000/svg"
 width="512.000000pt" height="512.000000pt" viewBox="0 0 512.000000 512.000000"
 preserveAspectRatio="xMidYMid meet">

<g transform="translate(0.000000,512.000000) scale(0.100000,-0.100000)"
fill="#ffffff" stroke="none">
<path d="M2973 4889 c-567 -54 -1072 -399 -1325 -903 -189 -376 -222 -829 -89
-1226 146 -437 464 -787 886 -977 740 -333 1616 -86 2067 582 201 299 302 685
270 1034 -55 582 -402 1082 -924 1331 -281 134 -585 188 -885 159z m398 -459
c382 -78 695 -323 858 -671 246 -524 66 -1151 -421 -1476 -197 -131 -385 -192
-619 -200 -226 -9 -389 23 -577 112 -133 63 -224 127 -332 235 -234 232 -350
509 -350 835 0 205 42 375 135 552 167 316 491 553 845 618 119 21 343 19 461
-5z"/>
<path d="M1310 2202 c-97 -86 -431 -386 -743 -665 l-567 -508 326 -355 326
-354 36 32 c294 257 1442 1291 1442 1298 0 7 -517 578 -619 682 l-26 27 -175
-157z"/>
<path d="M2880 555 l0 -335 1120 0 1120 0 0 335 0 335 -1120 0 -1120 0 0 -335z"/>
</g>
</svg>
